<?xml version="1.0" encoding="UTF-8"?>
<svg width="21px" height="22px" viewBox="0 0 21 22" version="1.1" xmlns="http://www.w3.org/2000/svg" xmlns:xlink="http://www.w3.org/1999/xlink">
    <!-- Generator: Sketch 61 (89581) - https://sketch.com -->
    <title>XMLID_16_</title>
    <desc>Created with Sketch.</desc>
    <defs>
        <filter x="-1.0%" y="-1.5%" width="102.0%" height="103.1%" filterUnits="objectBoundingBox" id="filter-1">
            <feOffset dx="0" dy="1" in="SourceAlpha" result="shadowOffsetOuter1"></feOffset>
            <feGaussianBlur stdDeviation="2" in="shadowOffsetOuter1" result="shadowBlurOuter1"></feGaussianBlur>
            <feColorMatrix values="0 0 0 0 0.266666667   0 0 0 0 0.345098039   0 0 0 0 0.439215686  0 0 0 0.3 0" type="matrix" in="shadowBlurOuter1" result="shadowMatrixOuter1"></feColorMatrix>
            <feMerge>
                <feMergeNode in="shadowMatrixOuter1"></feMergeNode>
                <feMergeNode in="SourceGraphic"></feMergeNode>
            </feMerge>
        </filter>
    </defs>
    <g id="layout" stroke="none" stroke-width="1" fill="none" fill-rule="evenodd">
        <g id="layout_007" transform="translate(-269.000000, -418.000000)" stroke="#DC8900">
            <g id="Group-3">
                <g id="Group-7" filter="url(#filter-1)" transform="translate(31.000000, 127.000000)">
                    <g id="Group-2">
                        <g id="Group-18" transform="translate(20.000000, 283.000000)">
                            <g id="Group-5-Copy" transform="translate(213.000000, 0.000000)">
                                <g id="Group-15">
                                    <path d="M21.8765763,16.2214921 C21.8087697,16.0048855 21.6284388,15.8470271 21.4113808,15.8143227 L17.730155,15.2590663 L16.0838185,11.7957133 C15.9867379,11.5915104 15.7863915,11.4622085 15.5670669,11.4622085 C15.347704,11.4622085 15.1473576,11.5915104 15.0503154,11.7957133 L13.4040942,15.2590264 L9.72275305,15.8142828 C9.5056951,15.8470271 9.32532572,16.0048855 9.25755754,16.2214522 C9.18978936,16.4380589 9.24630126,16.6758037 9.40338974,16.834739 L12.0672093,19.5301375 L11.4381255,23.3368465 C11.4010527,23.5613101 11.489912,23.7881269 11.6673617,23.9219755 C11.7677462,23.9977141 11.8866478,24.0362414 12.0061258,24.0362414 C12.0978279,24.0362414 12.1899143,24.0135478 12.2742403,23.9675223 L15.5670285,22.1704172 L18.8597783,23.9675223 C18.9446038,24.0138269 19.0374969,24.0358825 19.1295064,24.0362414 C19.4474098,24.0357628 19.7049597,23.7681054 19.7049597,23.4379907 C19.7049597,23.3920451 19.6999654,23.347256 19.6905147,23.3043016 L19.0668861,19.5301774 L21.7307057,16.834739 C21.8878326,16.6758037 21.9443445,16.4380589 21.8765763,16.2214921 Z" id="XMLID_16_"></path>
                                </g>
                            </g>
                        </g>
                    </g>
                </g>
            </g>
        </g>
    </g>
</svg>