<?xml version="1.0" encoding="UTF-8"?>
<svg width="15px" height="15px" viewBox="0 0 15 15" version="1.1" xmlns="http://www.w3.org/2000/svg" xmlns:xlink="http://www.w3.org/1999/xlink">
    <!-- Generator: Sketch 64 (93537) - https://sketch.com -->
    <title>star_empty</title>
    <desc>Created with Sketch.</desc>
    <g id="layout" stroke="none" stroke-width="1" fill="none" fill-rule="evenodd">
        <g id="layout_007" transform="translate(-138.000000, -724.000000)" stroke="#DC8900">
            <path d="M151.971063,729.920513 C151.901521,729.696568 151.716572,729.533362 151.493957,729.49955 L147.718474,728.925483 L146.029983,725.344803 C145.930417,725.133682 145.724941,725 145.5,725 C145.275021,725 145.069544,725.133682 144.970018,725.344803 L143.281645,728.925442 L139.506044,729.499508 C139.283428,729.533362 139.098441,729.696568 139.028937,729.920471 C138.959434,730.144416 139.017393,730.390215 139.178504,730.554534 L141.91053,733.341244 L141.265338,737.276912 C141.227316,737.50898 141.318451,737.74348 141.500444,737.881863 C141.603399,737.960167 141.725345,738 141.847882,738 C141.941932,738 142.036377,737.976538 142.122862,737.928953 L145.499961,736.070968 L148.877021,737.928953 C148.964018,737.976826 149.05929,737.999629 149.153655,738 C149.479699,737.999505 149.743843,737.72278 149.743843,737.381483 C149.743843,737.33398 149.738721,737.287674 149.729028,737.243265 L149.089432,733.341285 L151.821458,730.554534 C151.982608,730.390215 152.040567,730.144416 151.971063,729.920513 Z" id="star_empty"></path>
        </g>
    </g>
</svg>