<?xml version="1.0" encoding="UTF-8"?>
<svg width="15px" height="15px" viewBox="0 0 15 15" version="1.1" xmlns="http://www.w3.org/2000/svg" xmlns:xlink="http://www.w3.org/1999/xlink">
    <!-- Generator: Sketch 64 (93537) - https://sketch.com -->
    <title>star_ful</title>
    <desc>Created with Sketch.</desc>
    <defs>
        <linearGradient x1="50%" y1="0%" x2="50%" y2="100%" id="linearGradient-1">
            <stop stop-color="#FFE6A6" offset="0%"></stop>
            <stop stop-color="#FF9F00" offset="100%"></stop>
        </linearGradient>
    </defs>
    <g id="layout" stroke="none" stroke-width="1" fill="none" fill-rule="evenodd">
        <g id="layout_007" transform="translate(-120.000000, -724.000000)">
            <g id="star_ful" transform="translate(121.000000, 725.000000)">
                <path d="M6.46130114,0 C6.23766088,0 6.03340801,0.129568941 5.93447363,0.334193548 L4.2561534,3.80465886 L0.503031264,4.36106195 C0.281740995,4.39387382 0.0978546562,4.55205824 0.0287650925,4.76907222 C-0.0403244713,4.98612618 0.0172893316,5.22436198 0.17744082,5.38362546 L2.89320117,8.08459035 L2.25185105,11.8991607 C2.21405546,12.1240879 2.30464739,12.3513731 2.48555708,12.4854981 C2.58789893,12.5613931 2.709119,12.6 2.83092656,12.6 C2.92441681,12.6 3.01829871,12.5772595 3.104269,12.531139 L6.46126197,10.7303226 C9.08527278,12.5464158 10.5981855,13.3029749 11,13 C11.5663208,12.5729846 9.70981802,8.30061716 10.019473,8.05065171 C11.773403,6.63481204 12.766912,5.61792813 13,5 C13.3605102,4.0442693 12.0271769,3.71093597 9,4 C7.37179528,1.33333333 6.52556233,0 6.46130114,0 Z" id="XMLID_16_" fill="url(#linearGradient-1)"></path>
                <path d="M12.9710635,4.92051258 C12.9015207,4.69656802 12.7165724,4.53336188 12.4939567,4.49954959 L8.71847388,3.92548292 L7.02998332,0.344802867 C6.93041698,0.133682241 6.72494076,0 6.5,0 C6.27502071,0 6.06954448,0.133682241 5.97001755,0.344802867 L4.28164519,3.92544168 L0.506044118,4.49950836 C0.283428453,4.53336188 0.0984407465,4.69656802 0.028937378,4.92047134 C-0.0405659905,5.1444159 0.0173928843,5.39021474 0.178503584,5.55453421 L2.9105297,8.34124401 L2.26533828,12.2769119 C2.22731632,12.5089796 2.31845083,12.7434802 2.50044407,12.8818632 C2.60339888,12.9601675 2.72534499,13 2.84788211,13 C2.9419323,13 3.0363765,12.9765376 3.1228617,12.928953 L6.49996103,11.0709677 L9.87702096,12.928953 C9.96401837,12.9768262 10.05929,12.9996289 10.1536554,13 C10.4796987,12.9995052 10.743843,12.7227805 10.743843,12.3814825 C10.743843,12.3339804 10.7387209,12.2876741 10.7290282,12.2432645 L10.0894318,8.34128525 L12.8214579,5.55453421 C12.982608,5.39021474 13.0405669,5.1444159 12.9710635,4.92051258 Z" id="full" stroke="#DC8900"></path>
            </g>
        </g>
    </g>
</svg>