<?xml version="1.0" encoding="UTF-8"?>
<svg width="15px" height="15px" viewBox="0 0 15 15" version="1.1" xmlns="http://www.w3.org/2000/svg" xmlns:xlink="http://www.w3.org/1999/xlink">
    <!-- Generator: Sketch 61 (89581) - https://sketch.com -->
    <title>half</title>
    <desc>Created with Sketch.</desc>
    <defs>
        <linearGradient x1="50%" y1="0%" x2="50%" y2="100%" id="linearGradient-1">
            <stop stop-color="#FFE6A6" offset="0%"></stop>
            <stop stop-color="#FF9F00" offset="100%"></stop>
        </linearGradient>
    </defs>
    <g id="layout" stroke="none" stroke-width="1" fill="none" fill-rule="evenodd">
        <g id="layout_007" transform="translate(-163.000000, -411.000000)">
            <g id="half" transform="translate(164.000000, 412.000000)">
                <path d="M6.46130114,-4.4408921e-15 C6.23766088,-4.4408921e-15 6.03340801,0.136291207 5.93447363,0.351532102 L4.2561534,4.00205131 L0.503031264,4.58732157 C0.281740995,4.62183579 0.0978546562,4.78822709 0.0287650925,5.01650015 C-0.0403244713,5.24481524 0.0172893316,5.49541114 0.17744082,5.6629375 L2.89320117,8.50403323 L2.25185105,12.5165103 C2.21405546,12.7531071 2.30464739,12.9921842 2.48555708,13.1332679 C2.58789893,13.2131004 2.709119,13.2537103 2.83092656,13.2537103 C2.92441681,13.2537103 3.01829871,13.22979 3.104269,13.1812767 L6.46126197,11.2870307 C6.61035547,3.76234358 6.61036853,-4.4408921e-15 6.46130114,-4.4408921e-15 Z" id="XMLID_16_" fill="url(#linearGradient-1)"></path>
                <path d="M12.8938372,5.01654218 C12.8247085,4.78822709 12.6408613,4.62183579 12.419571,4.58736361 L8.66656638,4.00209335 L6.98812864,0.351532102 C6.8891551,0.136291207 6.68490223,-4.4408921e-15 6.46130114,-4.4408921e-15 C6.23766088,-4.4408921e-15 6.03340801,0.136291207 5.93447363,0.351532102 L4.2561534,4.00205131 L0.503031264,4.58732157 C0.281740995,4.62183579 0.0978546562,4.78822709 0.0287650925,5.01650015 C-0.0403244713,5.24481524 0.0172893316,5.49541114 0.17744082,5.6629375 L2.89320117,8.50403323 L2.25185105,12.5165103 C2.21405546,12.7531071 2.30464739,12.9921842 2.48555708,13.1332679 C2.58789893,13.2131004 2.709119,13.2537103 2.83092656,13.2537103 C2.92441681,13.2537103 3.01829871,13.22979 3.104269,13.1812767 L6.46126197,11.2870307 L9.81821577,13.1812767 C9.90469523,13.2300843 9.99939963,13.253332 10.0932032,13.2537103 C10.4173053,13.2532059 10.679877,12.9710805 10.679877,12.6231218 C10.679877,12.5746926 10.6747854,12.5274825 10.6651504,12.4822063 L10.0293619,8.50407527 L12.7451223,5.6629375 C12.9053129,5.49541114 12.9629267,5.24481524 12.8938372,5.01654218 Z" id="XMLID_16_" stroke="#DC8900"></path>
            </g>
        </g>
    </g>
</svg>