<?xml version="1.0" encoding="UTF-8"?>
<svg width="9px" height="14px" viewBox="0 0 9 14" version="1.1" xmlns="http://www.w3.org/2000/svg" xmlns:xlink="http://www.w3.org/1999/xlink">
    <title>right_icon</title>
    <g id="layout" stroke="none" stroke-width="1" fill="none" fill-rule="evenodd">
        <g id="layout_001-_V2-Copy" transform="translate(-829.000000, -323.000000)" fill="#445870" stroke="#445870">
            <g id="Group-7" transform="translate(692.000000, 292.000000)">
                <g id="Group-15" transform="translate(92.405594, 29.000000)">
                    <g id="Group-5" transform="translate(45.153846, 3.000000)">
                        <g id="Page-1" transform="translate(4.146853, 6.206294) scale(-1, 1) rotate(90.000000) translate(-4.146853, -6.206294) translate(-1.853147, 2.706294)">
                            <path d="M5.9386042,6.79021001 L5.93255158,6.79021001 C5.74895532,6.7888999 5.57342923,6.71356874 5.44766915,6.58255803 L0.181213833,1.10237998 C-0.0723238575,0.838393398 -0.0582010684,0.423744497 0.21282198,0.176789307 C0.483845029,-0.0701658839 0.909546244,-0.0570648128 1.16308394,0.207576824 L5.94734688,5.18532879 L10.7181596,0.389026659 C10.9770774,0.128970397 11.4027786,0.123074915 11.669094,0.374615481 C11.9354095,0.626156046 11.9428071,1.04080495 11.6838893,1.30086121 L6.42146909,6.59107373 C6.2950365,6.71815412 6.12085544,6.79021001 5.9386042,6.79021001" id="right_icon"></path>
                        </g>
                    </g>
                </g>
            </g>
        </g>
    </g>
</svg>